<?xml version="1.0" encoding="iso-8859-1"?>
<!-- Generator: Adobe Illustrator 19.0.0, SVG Export Plug-In . SVG Version: 6.00 Build 0)  -->
<svg version="1.1" id="Layer_1" xmlns="http://www.w3.org/2000/svg" xmlns:xlink="http://www.w3.org/1999/xlink" x="0px" y="0px"
	 viewBox="0 0 512 512" style="enable-background:new 0 0 512 512;" xml:space="preserve">
<path style="fill:#BABABA;" d="M194.432,96.067c4.588-29.4,30.08-51.968,60.746-51.968s56.157,22.567,60.746,51.968h36.867
	C347.989,46.435,306.05,7.5,255.178,7.5s-92.813,38.934-97.613,88.566H194.432z"/>
<path style="fill:#9E9393;" d="M255.178,24.735c-40.972,0-74.751,31.358-78.617,71.33h17.871c4.588-29.4,30.08-51.968,60.746-51.968
	s56.157,22.567,60.746,51.968h17.871C329.926,56.093,296.15,24.735,255.178,24.735z"/>
<path style="fill:#5C6077;" d="M414.86,96.067H88.408c-9.704,0-17.567,7.865-17.567,17.567v21.96h361.586v-21.96
	C432.427,103.932,424.563,96.067,414.86,96.067z"/>
<path style="fill:#424759;" d="M119.743,96.067H88.408c-9.704,0-17.567,7.865-17.567,17.567v21.96h31.335v-21.96
	C102.176,103.932,110.039,96.067,119.743,96.067z"/>
<path style="fill:#F95858;" d="M486.477,486.933c0,9.7-7.865,17.566-17.567,17.566H41.446c-9.702,0-17.567-7.865-17.567-17.566
	V153.161c0-9.704,7.865-17.567,17.567-17.567H468.91c9.702,0,17.567,7.863,17.567,17.567V486.933z"/>
<path style="fill:#EA3939;" d="M55.214,486.933V153.161c0-9.704,7.865-17.567,17.567-17.567H41.446
	c-9.702,0-17.567,7.863-17.567,17.567v333.772c0,9.7,7.865,17.566,17.567,17.566h31.335C63.079,504.5,55.214,496.633,55.214,486.933
	z"/>
<circle style="fill:#F2453D;" cx="255.175" cy="320.049" r="121.507"/>
<path style="fill:#E23A2D;" d="M337.679,395.052c-67.106,0-121.505-54.399-121.505-121.505c0-27.956,9.447-53.702,25.315-74.235
	c-60.66,6.803-107.816,58.258-107.816,120.734c0,67.106,54.399,121.505,121.505,121.505c39.15,0,73.968-18.521,96.191-47.271
	C346.875,394.785,342.307,395.052,337.679,395.052z"/>
<path style="fill:#F5F5F5;" d="M297.632,301.748h-24.155v-24.155c0-10.106-8.191-18.3-18.298-18.3c-10.106,0-18.3,8.193-18.3,18.3
	v24.155h-24.153c-10.106,0-18.3,8.191-18.3,18.298c0,10.106,8.193,18.3,18.3,18.3h24.153V362.5c0,10.107,8.193,18.3,18.3,18.3
	c10.106,0,18.298-8.194,18.298-18.3v-24.153h24.155c10.107,0,18.298-8.193,18.298-18.3
	C315.93,309.941,307.738,301.748,297.632,301.748z"/>
<g>
	<path style="fill:#231F20;" d="M487.299,193.246c4.142,0,7.5-3.357,7.5-7.5v-32.584c0-13.822-11.246-25.068-25.068-25.068H440.75
		v-14.46c0-13.822-11.246-25.068-25.068-25.068h-55.505c-3.803-23.349-15.361-44.784-33.034-60.932
		C307.636,9.815,282.371,0,255.999,0s-51.638,9.815-71.142,27.635c-17.674,16.147-29.229,37.582-33.03,60.932H89.23
		c-13.822,0-25.068,11.246-25.068,25.068v14.46H42.268c-13.822,0-25.068,11.246-25.068,25.068v333.772
		c0,13.821,11.246,25.067,25.068,25.067h427.463c13.822,0,25.068-11.245,25.068-25.067V211.747c0-4.143-3.358-7.5-7.5-7.5
		c-4.143,0-7.5,3.357-7.5,7.5v275.187c0,5.55-4.516,10.066-10.067,10.066H42.268c-5.551,0-10.067-4.515-10.067-10.066V153.161
		c0-5.551,4.516-10.067,10.067-10.067h29.394h361.586h36.482c5.551,0,10.067,4.516,10.067,10.067v32.584
		C479.799,189.889,483.156,193.246,487.299,193.246z M255.999,15.001c44.082,0,80.98,31.088,88.979,73.565h-22.123
		c-3.466-13.584-11.062-25.902-21.799-35.183c-12.523-10.824-28.524-16.785-45.057-16.785c-16.532,0-32.533,5.961-45.057,16.785
		c-10.738,9.281-18.333,21.599-21.799,35.183H167.02C175.018,46.089,211.915,15.001,255.999,15.001z M307.21,88.566H204.788
		c7.24-21.581,27.881-36.967,51.211-36.967S299.97,66.984,307.21,88.566z M79.162,128.094v-14.46
		c0-5.551,4.516-10.067,10.067-10.067h69.156h36.867h121.491h36.867h0.02h62.049c5.551,0,10.067,4.516,10.067,10.067v14.46H79.162z"
		/>
	<path style="fill:#231F20;" d="M328.827,222.487c2.271-3.463,1.306-8.112-2.158-10.386c-21.004-13.778-45.441-21.061-70.669-21.061
		c-71.134,0-129.006,57.872-129.006,129.006S184.866,449.052,256,449.052s129.006-57.872,129.006-129.006
		c0-34.677-13.565-67.219-38.196-91.631c-2.94-2.915-7.689-2.895-10.607,0.048c-2.916,2.941-2.895,7.691,0.048,10.608
		c21.767,21.572,33.755,50.331,33.755,80.976c0,62.862-51.143,114.005-114.005,114.005s-114.005-51.143-114.005-114.005
		s51.143-114.005,114.005-114.005c22.296,0,43.889,6.433,62.442,18.604C321.903,226.917,326.553,225.95,328.827,222.487z"/>
	<path style="fill:#231F20;" d="M255.999,388.301c14.226,0,25.799-11.574,25.799-25.801v-16.653h16.655
		c14.226,0,25.799-11.574,25.799-25.801c0-14.226-11.573-25.799-25.799-25.799h-16.655v-16.655
		c0-14.227-11.573-25.801-25.799-25.801c-14.227,0-25.801,11.574-25.801,25.801v16.655h-16.653
		c-14.227,0-25.801,11.573-25.801,25.799c0,14.227,11.574,25.801,25.801,25.801h16.653V362.5
		C230.199,376.727,241.773,388.301,255.999,388.301z M213.545,330.846c-5.954,0-10.8-4.845-10.8-10.8
		c0-5.953,4.845-10.798,10.8-10.798h24.153c4.143,0,7.5-3.357,7.5-7.5v-24.155c0-5.954,4.845-10.8,10.8-10.8
		c5.953,0,10.798,4.845,10.798,10.8v24.155c0,4.143,3.357,7.5,7.5,7.5h24.155c5.953,0,10.798,4.844,10.798,10.798
		c0,5.954-4.844,10.8-10.798,10.8h-24.155c-4.143,0-7.5,3.357-7.5,7.5V362.5c0,5.954-4.844,10.8-10.798,10.8
		c-5.954,0-10.8-4.845-10.8-10.8v-24.153c0-4.143-3.357-7.5-7.5-7.5H213.545z"/>
</g>
<g>
</g>
<g>
</g>
<g>
</g>
<g>
</g>
<g>
</g>
<g>
</g>
<g>
</g>
<g>
</g>
<g>
</g>
<g>
</g>
<g>
</g>
<g>
</g>
<g>
</g>
<g>
</g>
<g>
</g>
</svg>
