<?xml version="1.0" encoding="iso-8859-1"?>
<!-- Generator: Adobe Illustrator 21.0.0, SVG Export Plug-In . SVG Version: 6.00 Build 0)  -->
<svg version="1.1" id="Capa_1" xmlns="http://www.w3.org/2000/svg" xmlns:xlink="http://www.w3.org/1999/xlink" x="0px" y="0px"
	 viewBox="0 0 512.071 512.071" style="enable-background:new 0 0 512.071 512.071;" xml:space="preserve">
<g transform="translate(-1)">
	<g transform="translate(2 1)">
		<path style="fill:#607D8B;" d="M502.502,255.03c0,136.672-110.795,247.467-247.467,247.467c-4.267,0-8.533-0.085-12.715-0.341
			h-0.171C110.709,495.245,7.677,386.653,7.677,255.03S110.709,14.816,242.15,7.905h0.171c4.181-0.256,8.448-0.341,12.715-0.341
			C391.708,7.563,502.502,118.358,502.502,255.03z"/>
		<path style="fill:#CFD8DC;" d="M476.902,255.03c0.287,131.778-102.967,240.553-234.581,247.125h-0.171
			C110.709,495.245,7.677,386.653,7.677,255.03S110.709,14.816,242.15,7.905h0.171C373.935,14.477,477.189,123.252,476.902,255.03z"
			/>
		<path style="fill:#3F51B5;" d="M79.761,263.316l-33.178,59.733c-3.01,5.421-8.724,8.782-14.925,8.781H19.771
			c-16.27-49.907-16.27-103.693,0-153.6h11.887c6.201-0.002,11.914,3.36,14.925,8.781l33.178,59.733
			C82.623,251.898,82.623,258.163,79.761,263.316z"/>
		<path style="fill:#283593;" d="M502.502,255.03c0.034,26.085-4.085,52.01-12.203,76.8h-11.861
			c-4.529,0.03-8.874-1.788-12.032-5.035c13.995-46.82,13.995-96.711,0-143.531c3.158-3.246,7.503-5.065,12.032-5.035h11.861
			C498.417,203.02,502.536,228.945,502.502,255.03z"/>
		<g>
			<path style="fill:#3F51B5;" d="M476.902,255.03c0.015,24.305-3.521,48.482-10.496,71.765c-1.171-1.08-2.151-2.35-2.901-3.755
				l-33.195-59.733c-2.902-5.137-2.902-11.418,0-16.555l33.195-59.733c0.75-1.405,1.731-2.674,2.901-3.755
				C473.381,206.548,476.917,230.725,476.902,255.03z"/>
			<path style="fill:#3F51B5;" d="M292.684,331.83h-75.298c-3.098,0-5.953-1.679-7.458-4.386l-37.922-68.267
				c-1.434-2.579-1.434-5.716,0-8.294l37.922-68.267c1.506-2.707,4.36-4.386,7.458-4.386h75.298c3.098,0,5.953,1.679,7.458,4.386
				l37.922,68.267c1.434,2.579,1.434,5.716,0,8.294l-37.922,68.267C298.637,330.151,295.782,331.83,292.684,331.83z"/>
			<path style="fill:#3F51B5;" d="M199.236,49.974l-33.186,59.733c-3.008,5.424-8.722,8.789-14.925,8.789H85.862
				c-6.191-0.001-11.896-3.355-14.908-8.764l-6.827-12.228C96.617,58.111,140.5,29.734,189.755,16.267l9.498,17.152
				C202.103,38.571,202.097,44.828,199.236,49.974z"/>
			<path style="fill:#3F51B5;" d="M199.253,476.641l-9.498,17.152c-49.25-13.47-93.126-41.846-125.611-81.237l6.827-12.228
				c3.009-5.404,8.706-8.756,14.891-8.764h65.263c6.201-0.002,11.914,3.36,14.925,8.781l33.186,59.733
				C202.1,465.226,202.106,471.487,199.253,476.641z"/>
			<path style="fill:#3F51B5;" d="M445.926,97.505l-6.827,12.228c-3.009,5.404-8.706,8.756-14.891,8.764h-65.263
				c-6.201,0.002-11.914-3.36-14.925-8.781l-33.186-59.733c-2.856-5.149-2.856-11.406,0-16.555l9.481-17.161
				C369.565,29.737,413.441,58.113,445.926,97.505z"/>
			<path style="fill:#3F51B5;" d="M445.926,412.556c-32.485,39.391-76.361,67.768-125.611,81.237l-9.498-17.152
				c-2.856-5.149-2.856-11.406,0-16.555l33.186-59.733c3.011-5.429,8.733-8.795,14.942-8.789h65.263
				c6.191,0.001,11.896,3.355,14.908,8.764L445.926,412.556z"/>
		</g>
	</g>
	<g>
		<path d="M307.16,336.977l40.226-72.414h46.182c4.713,0,8.533-3.821,8.533-8.533c0-4.713-3.821-8.533-8.533-8.533h-46.182
			l-40.226-72.414c-1.506-2.707-4.36-4.386-7.458-4.386h-85.333c-3.098,0-5.953,1.679-7.458,4.386l-40.226,72.414h-46.182
			c-4.713,0-8.533,3.821-8.533,8.533c0,4.713,3.821,8.533,8.533,8.533h46.182l40.226,72.414c1.506,2.707,4.36,4.386,7.458,4.386
			h85.333C302.8,341.364,305.655,339.685,307.16,336.977z M294.684,324.297h-75.298l-37.922-68.267l37.922-68.267h75.298
			l37.922,68.267L294.684,324.297z"/>
		<path d="M500.09,175.817c-9.867-29.844-25.149-57.615-45.082-81.92c-0.295-0.444-0.635-0.856-1.015-1.229
			C405.427,34,333.232,0.041,257.07,0.041S108.712,34,60.146,92.668c-0.404,0.37-0.767,0.782-1.084,1.229
			c-19.945,24.302-35.239,52.073-45.116,81.92c-0.051,0.119-0.077,0.256-0.128,0.375c-17.091,51.865-17.091,107.845,0,159.71
			c0.051,0.119,0.077,0.256,0.128,0.375c9.881,29.835,25.175,57.594,45.116,81.886c0.295,0.444,0.635,0.856,1.015,1.229
			c33.4,40.245,78.303,69.32,128.691,83.328c0.484,0.185,0.984,0.325,1.493,0.418c43.72,11.856,89.809,11.856,133.53,0
			c0.515-0.092,1.021-0.232,1.51-0.418c50.378-14.01,95.272-43.082,128.666-83.319c0.39-0.375,0.739-0.789,1.041-1.237
			c19.945-24.302,35.239-52.073,45.116-81.92c0.051-0.119,0.077-0.256,0.128-0.375c17.091-51.865,17.091-107.845,0-159.71
			C500.167,176.056,500.142,175.919,500.09,175.817z M495.969,256.03c0.003,23.12-3.363,46.117-9.993,68.267h-10.59l-37.922-68.267
			l37.922-68.267h10.59C492.605,209.913,495.972,232.91,495.969,256.03z M437.498,99.699l-6.281,11.264H355.92l-37.922-68.267
			l8.457-15.275C369.531,40.59,408.019,65.642,437.498,99.699z M187.617,27.414l8.457,15.283l-37.922,68.267H82.853l-6.281-11.264
			C106.051,65.638,144.539,40.584,187.617,27.414z M18.102,256.03c-0.003-23.12,3.363-46.117,9.993-68.267h10.59l37.922,68.267
			l-37.922,68.267h-10.59C21.465,302.147,18.099,279.15,18.102,256.03z M76.572,412.361l6.281-11.264h75.298l37.922,68.267
			l-8.457,15.275C144.54,471.47,106.052,446.419,76.572,412.361z M204.658,489.11l8.644-15.616c1.428-2.574,1.428-5.703,0-8.277
			l-39.782-71.603l25.395-29.628c2.918-3.592,2.441-8.855-1.075-11.863c-3.516-3.009-8.789-2.667-11.887,0.77l-26.709,31.138H77.835
			c-3.096-0.002-5.95,1.673-7.458,4.378l-5.342,9.626c-12.898-17.39-23.368-36.455-31.121-56.67h9.788
			c3.098,0,5.953-1.679,7.458-4.386l42.667-76.8c1.434-2.579,1.434-5.716,0-8.294l-42.667-76.8c-1.506-2.707-4.36-4.386-7.458-4.386
			h-9.788c7.753-20.215,18.223-39.28,31.121-56.67l5.359,9.626c1.505,2.699,4.351,4.373,7.441,4.378h81.408l26.701,31.155
			c3.098,3.437,8.371,3.779,11.887,0.77c3.516-3.009,3.993-8.272,1.075-11.863l-25.395-29.628l39.782-71.603
			c1.428-2.574,1.428-5.703,0-8.277l-8.644-15.616c34.482-7.806,70.273-7.806,104.755,0l-8.644,15.616
			c-1.428,2.574-1.428,5.703,0,8.277l39.782,71.603l-25.395,29.628c-2.918,3.592-2.441,8.855,1.075,11.863
			c3.516,3.009,8.789,2.667,11.887-0.77l26.718-31.155h81.408c3.096,0.002,5.95-1.673,7.458-4.378l5.359-9.626
			c12.892,17.391,23.356,36.456,31.104,56.67h-9.788c-3.098,0-5.953,1.679-7.458,4.386l-42.667,76.8
			c-1.434,2.579-1.434,5.716,0,8.294l42.667,76.8c1.506,2.707,4.36,4.386,7.458,4.386h9.788
			c-7.753,20.215-18.223,39.28-31.121,56.67l-5.359-9.626c-1.505-2.699-4.351-4.373-7.441-4.378h-81.408l-26.701-31.155
			c-3.098-3.437-8.371-3.779-11.887-0.77c-3.516,3.009-3.993,8.272-1.075,11.863l25.395,29.628l-39.782,71.603
			c-1.428,2.574-1.428,5.703,0,8.277l8.644,15.616c-34.482,7.806-70.273,7.806-104.755,0L204.658,489.11z M326.454,484.647
			l-8.457-15.283l37.922-68.267h75.298l6.281,11.264C408.02,446.422,369.532,471.477,326.454,484.647z"/>
	</g>
</g>
<g>
</g>
<g>
</g>
<g>
</g>
<g>
</g>
<g>
</g>
<g>
</g>
<g>
</g>
<g>
</g>
<g>
</g>
<g>
</g>
<g>
</g>
<g>
</g>
<g>
</g>
<g>
</g>
<g>
</g>
</svg>
