<?xml version="1.0" encoding="iso-8859-1"?>
<!-- Generator: Adobe Illustrator 19.0.0, SVG Export Plug-In . SVG Version: 6.00 Build 0)  -->
<svg version="1.1" id="Layer_1" xmlns="http://www.w3.org/2000/svg" xmlns:xlink="http://www.w3.org/1999/xlink" x="0px" y="0px"
	 viewBox="0 0 512.003 512.003" style="enable-background:new 0 0 512.003 512.003;" xml:space="preserve">
<circle style="fill:#9DEAFC;" cx="256.008" cy="255.996" r="248.495"/>
<path style="fill:#6EDCF9;" d="M112.374,259.364c0-126.292,97.462-229.815,221.275-239.473
	c-24.431-8.029-50.527-12.389-77.646-12.389C118.76,7.502,7.504,118.759,7.504,256S118.76,504.499,256.003,504.499
	c21.044,0,41.473-2.626,60.987-7.551C201.206,479.746,112.374,379.933,112.374,259.364z"/>
<path style="fill:#49B5CE;" d="M179.336,19.574l76.667,48.957l76.668-48.957C308.52,11.748,282.76,7.502,256.003,7.502
	C229.246,7.502,203.484,11.748,179.336,19.574z"/>
<g>
	<path style="fill:#22A2AF;" d="M248.343,7.63c-1.329,0.041-2.656,0.09-3.981,0.151c-0.703,0.033-1.406,0.066-2.109,0.104
		c-1.304,0.071-2.604,0.156-3.903,0.247c-0.641,0.045-1.283,0.083-1.922,0.133c-1.788,0.139-3.571,0.298-5.348,0.475
		c-0.812,0.081-1.618,0.176-2.427,0.265c-1.028,0.113-2.056,0.227-3.081,0.352c-0.972,0.119-1.94,0.246-2.909,0.375
		c-0.828,0.111-1.654,0.228-2.48,0.347c-1.059,0.153-2.116,0.307-3.171,0.474c-0.581,0.091-1.158,0.192-1.738,0.288
		c-2.715,0.449-5.419,0.932-8.105,1.468c-0.006,0.001-0.012,0.002-0.018,0.003c-1.371,0.274-2.738,0.564-4.102,0.86
		c-0.335,0.073-0.669,0.145-1.003,0.219c-1.386,0.307-2.769,0.624-4.146,0.955c-0.16,0.038-0.319,0.078-0.479,0.117
		c-6.115,1.48-12.144,3.183-18.073,5.104c-0.004,0.001-0.008,0.003-0.012,0.004l51.344,32.787
		c30.148-17.793,64.519-29.184,101.25-32.314l0.733-0.468c-0.526-0.17-1.055-0.336-1.582-0.503c-0.856-0.271-1.711-0.544-2.57-0.806
		c-0.656-0.2-1.316-0.391-1.975-0.585c-0.879-0.26-1.756-0.521-2.639-0.771c-0.65-0.185-1.306-0.36-1.959-0.54
		c-0.896-0.246-1.79-0.494-2.689-0.73c-0.649-0.17-1.302-0.331-1.953-0.497c-0.906-0.23-1.813-0.462-2.723-0.683
		c-0.656-0.158-1.316-0.307-1.975-0.461c-0.912-0.212-1.823-0.428-2.74-0.631c-0.662-0.147-1.328-0.283-1.992-0.424
		c-0.916-0.195-1.83-0.392-2.749-0.577c-0.677-0.136-1.358-0.261-2.038-0.392c-0.912-0.175-1.823-0.354-2.738-0.519
		c-0.692-0.125-1.388-0.238-2.082-0.357c-0.907-0.156-1.815-0.316-2.727-0.462c-0.712-0.114-1.427-0.216-2.142-0.324
		c-0.898-0.136-1.795-0.276-2.697-0.403c-0.738-0.103-1.479-0.194-2.22-0.29c-0.883-0.115-1.763-0.236-2.648-0.342
		c-0.768-0.092-1.541-0.17-2.312-0.256c-0.862-0.095-1.722-0.196-2.587-0.282c-0.812-0.081-1.627-0.148-2.44-0.221
		c-0.828-0.074-1.653-0.155-2.483-0.222c-0.869-0.069-1.742-0.124-2.613-0.184c-0.781-0.054-1.561-0.116-2.344-0.163
		c-0.943-0.056-1.891-0.096-2.837-0.142c-0.716-0.035-1.43-0.078-2.147-0.107c-1.093-0.044-2.189-0.07-3.287-0.099
		c-0.575-0.016-1.148-0.04-1.725-0.051c-1.676-0.034-3.355-0.051-5.039-0.051c-1.942,0-3.88,0.029-5.812,0.074
		C249.573,7.589,248.959,7.611,248.343,7.63z"/>
	<path style="fill:#22A2AF;" d="M50.564,116.169c-27.167,39.837-43.06,87.976-43.06,139.831c0,12.596,0.945,24.972,2.755,37.064
		l76.535-75.155L50.564,116.169z"/>
</g>
<path style="fill:#49B5CE;" d="M425.212,217.91l76.536,75.155c1.809-12.092,2.754-24.467,2.754-37.064
	c0-51.855-15.892-99.995-43.061-139.831L425.212,217.91z"/>
<path style="fill:#22A2AF;" d="M219.256,501.789l-46.187-85.056l-100.97,6.394C109.767,464.552,161.245,493.189,219.256,501.789z"/>
<g>
	<path style="fill:#49B5CE;" d="M313.205,497.87c53.602-12.627,100.508-42.606,134.456-83.689l-86.053-5.45L313.205,497.87z"/>
	<path style="fill:#49B5CE;" d="M349.922,233.135l-89.99-77.932c-2.254-1.952-5.602-1.952-7.856,0l-89.988,77.932
		c-2.022,1.751-2.641,4.63-1.518,7.057l45.129,97.496c0.982,2.121,3.108,3.48,5.446,3.48h89.716c2.338,0,4.464-1.357,5.445-3.48
		l45.132-97.496C352.563,237.765,351.943,234.887,349.922,233.135z"/>
</g>
<g>
	<path style="fill:#231F20;" d="M279.841,183.692c3.133,2.711,7.869,2.372,10.582-0.76c2.711-3.132,2.371-7.869-0.76-10.581
		l-28.75-24.899c-2.818-2.44-7.003-2.44-9.822,0l-96.108,83.232c-2.527,2.189-3.302,5.787-1.896,8.822l48.054,103.812
		c1.229,2.652,3.886,4.351,6.808,4.351h96.108c2.923,0,5.579-1.697,6.807-4.351l48.056-103.812c1.405-3.035,0.632-6.632-1.896-8.822
		L308.543,188.7c-3.133-2.711-7.868-2.372-10.582,0.76c-2.711,3.132-2.371,7.869,0.76,10.581l44.212,38.288l-43.67,94.337h-86.521
		l-43.668-94.337l86.929-75.282L279.841,183.692z"/>
	<path style="fill:#231F20;" d="M439.699,434.276c1.065-1.098,2.122-2.202,3.167-3.316c0.248-0.265,0.494-0.532,0.741-0.798
		c40.526-43.576,64.247-98.921,67.883-158.119c0.045-0.715,0.093-1.429,0.131-2.143c0.05-0.924,0.09-1.85,0.129-2.775
		c0.049-1.114,0.089-2.228,0.122-3.343c0.021-0.713,0.045-1.424,0.061-2.137c0.041-1.883,0.068-3.765,0.068-5.644
		c0-1.45-0.016-2.9-0.04-4.349c-0.011-0.606-0.027-1.212-0.042-1.818c-0.019-0.786-0.039-1.572-0.065-2.358
		c-0.027-0.84-0.061-1.679-0.096-2.518c-0.019-0.43-0.039-0.859-0.06-1.289c-1.582-33.337-9.572-65.701-23.518-95.623
		c-0.208-0.446-0.419-0.892-0.629-1.337c-0.345-0.728-0.688-1.455-1.039-2.18c-0.559-1.156-1.126-2.307-1.703-3.454
		c-0.04-0.08-0.078-0.161-0.119-0.241c-0.607-1.204-1.223-2.404-1.849-3.599c-0.066-0.127-0.139-0.251-0.205-0.377
		c-0.945-1.793-1.917-3.574-2.907-5.347c-0.344-0.615-0.691-1.228-1.04-1.84c-0.897-1.578-1.811-3.149-2.744-4.709
		c-0.191-0.321-0.378-0.644-0.571-0.964c-1.093-1.812-2.218-3.608-3.358-5.396c-0.274-0.43-0.55-0.859-0.826-1.288
		c-1.163-1.8-2.341-3.593-3.553-5.368c-0.02-0.029-0.045-0.054-0.065-0.083c-16.876-24.686-38.085-46.469-62.399-63.931
		c-3.364-2.416-8.052-1.649-10.469,1.717c-2.416,3.366-1.647,8.052,1.717,10.469c22.216,15.955,41.256,35.404,56.618,57.282
		l-34.896,97.996c-0.979,2.752-0.273,5.822,1.811,7.869l73.757,72.427c-6.893,41.421-24.381,79.299-49.584,110.752l-82.047-5.196
		c-2.908-0.181-5.672,1.34-7.066,3.907l-46.767,86.125c-16.83,3.734-34.31,5.721-52.246,5.721c-8.869,0-17.623-0.496-26.247-1.434
		l-49.095-90.411c-1.394-2.567-4.171-4.088-7.065-3.907l-104.571,6.619c-25.821-31.731-43.736-70.13-50.733-112.177l73.757-72.427
		c2.084-2.046,2.791-5.117,1.811-7.869l-34.897-97.997c29.084-41.223,70.758-72.957,119.385-89.553l73.617,47.01
		c1.23,0.786,2.633,1.179,4.037,1.179s2.807-0.393,4.037-1.179l73.635-47.021c14.364,4.878,28.268,11.107,41.488,18.642
		c3.6,2.053,8.18,0.796,10.232-2.803c2.052-3.6,0.797-8.18-2.802-10.232c-15.028-8.566-30.886-15.543-47.283-20.871
		c-0.11-0.042-0.214-0.096-0.327-0.132c-19.937-6.459-40.552-10.414-61.49-11.832c-0.412-0.028-0.824-0.058-1.236-0.085
		c-0.912-0.058-1.825-0.108-2.74-0.156c-0.695-0.037-1.391-0.071-2.086-0.102c-0.763-0.034-1.525-0.066-2.289-0.093
		c-0.922-0.033-1.844-0.058-2.767-0.08c-0.586-0.015-1.17-0.033-1.756-0.043C259.08,0.017,257.541,0,256.002,0
		c-1.928,0-3.854,0.027-5.778,0.07c-0.682,0.015-1.362,0.039-2.043,0.06c-1.215,0.037-2.43,0.079-3.644,0.133
		c-0.862,0.038-1.725,0.08-2.585,0.125c-0.961,0.052-1.92,0.113-2.881,0.176c-1.029,0.067-2.06,0.132-3.088,0.211
		c-0.309,0.024-0.616,0.054-0.925,0.079C174.575,5.721,118.364,31.6,74.982,74.981C34.717,115.246,9.533,166.566,2.231,222.094
		c-0.02,0.145-0.04,0.29-0.059,0.435c-0.169,1.301-0.326,2.604-0.476,3.91c-0.068,0.592-0.132,1.184-0.196,1.777
		c-0.122,1.137-0.243,2.274-0.351,3.416c-0.101,1.07-0.188,2.142-0.275,3.215c-0.1,1.228-0.192,2.456-0.274,3.688
		c-0.086,1.273-0.167,2.546-0.233,3.823c-0.037,0.718-0.068,1.436-0.101,2.155c-0.058,1.297-0.104,2.596-0.143,3.897
		c-0.018,0.618-0.038,1.236-0.052,1.855c-0.042,1.909-0.069,3.821-0.069,5.736c0,1.879,0.027,3.761,0.068,5.643
		c0.016,0.715,0.039,1.428,0.06,2.142c0.033,1.111,0.073,2.223,0.121,3.335c0.04,0.927,0.08,1.853,0.13,2.779
		c0.038,0.715,0.086,1.43,0.131,2.143c3.617,58.881,27.103,113.951,67.233,157.42c0.083,0.09,0.166,0.179,0.249,0.269
		c1.207,1.303,2.425,2.598,3.662,3.881c0.393,0.408,0.791,0.81,1.186,1.216c0.713,0.73,1.415,1.469,2.139,2.191
		c0.26,0.26,0.525,0.509,0.786,0.767c0.658,0.654,1.324,1.296,1.989,1.941c0.774,0.753,1.547,1.508,2.329,2.249
		c0.842,0.798,1.694,1.581,2.546,2.366c0.65,0.601,1.297,1.207,1.953,1.8c0.925,0.835,1.861,1.654,2.798,2.476
		c0.621,0.545,1.237,1.098,1.862,1.637c0.842,0.725,1.696,1.432,2.547,2.145c0.749,0.629,1.492,1.266,2.247,1.885
		c0.213,0.175,0.431,0.342,0.645,0.516c45.487,37.05,101.85,57.197,161.315,57.197c68.379,0,132.667-26.629,181.019-74.981
		c0.776-0.776,1.532-1.569,2.297-2.353C439.445,434.535,439.572,434.406,439.699,434.276z M256.002,59.631l-58.586-37.412
		c0.915-0.229,1.833-0.455,2.754-0.673c0.828-0.197,1.655-0.394,2.485-0.581c1.234-0.28,2.473-0.55,3.716-0.811
		c1.026-0.215,2.055-0.42,3.085-0.622c1.116-0.22,2.232-0.44,3.355-0.644c1.378-0.25,2.76-0.478,4.143-0.703
		c0.891-0.146,1.776-0.301,2.67-0.437c2.063-0.313,4.131-0.599,6.202-0.858c0.81-0.101,1.624-0.186,2.437-0.279
		c1.47-0.168,2.941-0.331,4.415-0.473c0.876-0.085,1.755-0.16,2.634-0.234c1.443-0.123,2.889-0.234,4.336-0.332
		c0.858-0.058,1.716-0.115,2.577-0.164c1.557-0.088,3.117-0.156,4.679-0.214c0.736-0.027,1.471-0.063,2.209-0.084
		c2.293-0.064,4.59-0.104,6.89-0.104c2.32,0,4.638,0.04,6.952,0.105c0.231,0.007,0.463,0.01,0.694,0.017
		c2.091,0.066,4.179,0.168,6.264,0.287c0.492,0.028,0.986,0.052,1.478,0.084c1.853,0.117,3.701,0.264,5.548,0.423
		c0.749,0.065,1.499,0.129,2.247,0.201c1.623,0.156,3.244,0.333,4.862,0.521c0.981,0.115,1.961,0.232,2.941,0.359
		c1.423,0.183,2.845,0.381,4.264,0.59c1.165,0.171,2.328,0.351,3.491,0.54c0.563,0.091,1.127,0.192,1.69,0.287
		c1.991,0.338,3.98,0.695,5.961,1.082c0.308,0.06,0.614,0.124,0.922,0.186c2.199,0.439,4.393,0.905,6.578,1.405
		c0.342,0.078,0.682,0.16,1.023,0.239c1.226,0.286,2.449,0.581,3.671,0.886L256.002,59.631z M169.762,416.521l41.422,76.281
		c-50.517-9.541-95.518-34.882-129.634-70.695L169.762,416.521z M78.12,215.913l-62.191,61.069c-0.034-0.388-0.072-0.773-0.104-1.16
		c-0.074-0.914-0.143-1.827-0.208-2.742c-0.07-1.011-0.134-2.023-0.192-3.038c-0.052-0.88-0.102-1.76-0.144-2.64
		c-0.054-1.158-0.095-2.321-0.133-3.485c-0.023-0.729-0.054-1.459-0.07-2.189c-0.045-1.904-0.073-3.814-0.073-5.729
		c0-1.855,0.028-3.704,0.07-5.549c0.01-0.425,0.021-0.85,0.032-1.275c0.105-3.767,0.296-7.512,0.572-11.235
		c0.02-0.276,0.041-0.553,0.063-0.829c2.937-37.7,14.597-72.985,32.942-103.855L78.12,215.913z M433.884,215.913l29.426-82.636
		c20.497,34.65,32.303,74.286,33.572,115.33c0.005,0.151,0.007,0.303,0.011,0.455c0.067,2.308,0.105,4.622,0.105,6.938
		c0,1.915-0.028,3.824-0.072,5.729c-0.018,0.729-0.048,1.459-0.071,2.189c-0.038,1.163-0.079,2.326-0.134,3.485
		c-0.041,0.88-0.092,1.76-0.143,2.64c-0.059,1.014-0.122,2.026-0.193,3.038c-0.064,0.914-0.133,1.827-0.207,2.742
		c-0.031,0.387-0.07,0.772-0.104,1.16L433.884,215.913z M365.914,416.521l65.859,4.171c-18.891,20.15-41.185,37.069-65.972,49.808
		c-0.116,0.06-0.232,0.119-0.349,0.179c-3.385,1.732-6.815,3.389-10.289,4.964c-0.045,0.02-0.09,0.04-0.134,0.061
		c-8.677,3.926-17.626,7.346-26.81,10.236L365.914,416.521z"/>
</g>
<g>
</g>
<g>
</g>
<g>
</g>
<g>
</g>
<g>
</g>
<g>
</g>
<g>
</g>
<g>
</g>
<g>
</g>
<g>
</g>
<g>
</g>
<g>
</g>
<g>
</g>
<g>
</g>
<g>
</g>
</svg>
