<?xml version="1.0" encoding="iso-8859-1"?>
<!-- Generator: Adobe Illustrator 21.0.0, SVG Export Plug-In . SVG Version: 6.00 Build 0)  -->
<svg version="1.1" id="Capa_1" xmlns="http://www.w3.org/2000/svg" xmlns:xlink="http://www.w3.org/1999/xlink" x="0px" y="0px"
	 viewBox="0 0 511.981 511.981" style="enable-background:new 0 0 511.981 511.981;" xml:space="preserve">
<g>
	<g transform="translate(1 1)">
		<g>
			<path style="fill:#607D8B;" d="M417.133,354.192v27.998c0.198,4.926-3.61,9.091-8.533,9.335H383
				c-4.924-0.244-8.731-4.41-8.533-9.335v-27.998H417.133z"/>
			<path style="fill:#607D8B;" d="M493.933,328.063v45.773c0.149,4.876-3.659,8.962-8.533,9.156h-25.6
				c-4.875-0.194-8.682-4.28-8.533-9.156v-20.966c2.908-1.138,5.756-2.422,8.533-3.849
				C471.954,343.385,483.409,336.352,493.933,328.063z"/>
			<path style="fill:#607D8B;" d="M135.533,354.192v0.094H101.4v27.904c0.198,4.926-3.61,9.091-8.533,9.335h-25.6
				c-4.924-0.244-8.731-4.41-8.533-9.335v-27.998H135.533z"/>
			<path style="fill:#607D8B;" d="M212.333,354.192v0.094H178.2v27.904c0.198,4.926-3.61,9.091-8.533,9.335h-25.6
				c-4.924-0.244-8.731-4.41-8.533-9.335v-27.998H212.333z"/>
			<path style="fill:#607D8B;" d="M374.467,354.192v0.094H255v27.904c0.198,4.926-3.61,9.091-8.533,9.335h-25.6
				c-4.924-0.244-8.731-4.41-8.533-9.335v-27.998H374.467z"/>
			<path style="fill:#607D8B;" d="M493.933,331.792c-10.61,7.772-22.06,14.327-34.133,19.541c-4.864,2.304-8.533,3.584-8.533,3.584
				c-5.537,1.657-11.287,2.491-17.067,2.475H58.733v0.085h-0.085c-0.627,0.014-1.254-0.014-1.877-0.085h-0.341
				c-22.56-0.897-41.82-16.577-47.275-38.485c-1.1-4.061-1.645-8.252-1.621-12.459c-0.017-1.6,0.097-3.198,0.341-4.779
				c0.836-7.922,3.915-15.441,8.875-21.675c5.956-7.55,14.283-12.872,23.637-15.104c4.864-1.109,10.155-2.389,15.787-3.84
				c3.328-0.768,6.827-1.707,10.411-2.56c0.427-0.085,0.853-0.256,1.28-0.341c3.072-0.768,6.144-1.536,9.387-2.389
				c2.56-0.768,5.205-1.451,7.936-2.219c0.578-0.102,1.149-0.244,1.707-0.427c8.619-2.389,17.664-4.864,26.88-7.595
				c4.864-1.451,9.728-2.901,14.677-4.437c1.792-0.597,3.584-1.109,5.376-1.707c2.987-0.939,5.973-1.877,8.96-2.901
				c-0.085-0.597-0.085-1.28-0.171-1.963c-0.41-3.396,1.277-6.701,4.267-8.363c0.085,0,0.085,0,0.171-0.171
				c0.764-0.179,1.507-0.436,2.219-0.768c0.196-0.068,0.395-0.125,0.597-0.171h0.171c4.041-0.477,7.846,2,9.045,5.888v0.085
				c1.963-0.683,3.925-1.365,5.888-2.133c5.461-1.963,10.837-3.925,16.128-5.973c-0.085-0.939-0.085-1.792-0.171-2.816
				c-0.451-4.26,2.352-8.185,6.527-9.142s8.408,1.356,9.857,5.387c0.293-0.125,0.578-0.267,0.853-0.427
				c7.339-3.072,14.336-6.315,20.992-9.557c-0.085-1.109-0.085-2.304-0.171-3.499c-0.465-4.099,2.087-7.939,6.046-9.097
				s8.179,0.7,9.996,4.404c1.707-1.024,3.328-1.963,4.949-2.901c0.341-0.171,0.683-0.427,1.024-0.597
				c5.474-3.305,10.772-6.894,15.872-10.752c-0.256-1.707-0.341-3.413-0.683-5.291c-0.369-2.241,0.171-4.537,1.501-6.379
				c1.329-1.842,3.338-3.078,5.582-3.434c1.605-0.185,3.231,0.081,4.693,0.768c1.963-0.512,3.925-1.109,5.803-1.536
				c0.683-0.768,1.28-1.536,1.963-2.304c0.597-0.597,1.109-1.195,1.621-1.792c0.597-0.768,1.28-1.451,1.877-2.133
				c1.109-1.28,2.304-2.56,3.413-3.755c1.109-1.195,2.133-2.475,3.157-3.584c0.512-0.512,0.853-0.939,1.28-1.365l2.987-3.243
				c0.683-0.683,1.195-1.28,1.792-1.792c6.587-7.161,13.658-13.861,21.163-20.053c1.109-0.939,2.133-1.707,3.072-2.389
				c0.178-0.17,0.379-0.314,0.597-0.427c0.269-0.306,0.586-0.565,0.939-0.768c1.659-1.224,3.398-2.336,5.205-3.328
				c0.351-0.232,0.722-0.432,1.109-0.597c0.839-0.488,1.725-0.888,2.645-1.195l0.085-0.085h0.085
				c0.171-0.085,0.427-0.171,0.597-0.256c3.413-1.109,4.437-0.085,4.437-0.085c26.494,16.835,56.137,28.1,87.125,33.109
				c1.365,0.171,2.645,0.256,4.011,0.341c3.74,0.412,7.501,0.611,11.264,0.597c5.717,0,11.008-0.256,15.787-0.683
				c2.987-0.256,5.803-0.512,8.448-0.853c5.558-0.741,11.06-1.853,16.469-3.328c2.544-0.657,5.248-0.106,7.331,1.495
				c2.083,1.6,3.314,4.071,3.335,6.697c0.085,4.011,0.256,7.936,0.427,11.776c0.171,3.84,0.427,7.595,0.683,11.349
				c2.444,0.318,4.627,1.69,5.973,3.755c1.203,1.923,1.592,4.245,1.079,6.455c-0.512,2.21-1.883,4.124-3.81,5.321
				c-0.085,0-0.768,0.427-1.877,1.024c0.597,5.632,1.195,11.179,1.877,16.469c1.536,11.264,3.157,21.845,4.779,31.573
				c2.475,14.592,4.864,27.648,6.4,39.083v0.171c0.427,2.901,0.768,5.717,1.024,8.363
				C503.461,305.514,500.608,319.51,493.933,331.792z"/>
		</g>
		<path style="fill:#CFD8DC;" d="M468.333,331.792c-10.61,7.772-22.059,14.327-34.133,19.541c-4.864,2.304-8.533,3.584-8.533,3.584
			c-5.537,1.657-11.287,2.491-17.067,2.475H56.429c-22.56-0.897-41.82-16.577-47.275-38.485c-1.1-4.061-1.645-8.252-1.621-12.459
			c-0.017-1.6,0.097-3.198,0.341-4.779c0.836-7.922,3.915-15.441,8.875-21.675c5.956-7.55,14.283-12.872,23.637-15.104
			c4.864-1.109,10.155-2.389,15.787-3.84c3.328-0.768,6.827-1.707,10.411-2.56c0.427-0.085,0.853-0.256,1.28-0.341
			c3.072-0.768,6.144-1.536,9.387-2.389c2.56-0.768,5.205-1.451,7.936-2.219c0.578-0.102,1.149-0.244,1.707-0.427
			c8.619-2.389,17.664-4.864,26.88-7.595c4.864-1.451,9.728-2.901,14.677-4.437c1.792-0.597,3.584-1.109,5.376-1.707
			c2.987-0.939,5.973-1.877,8.96-2.901c-0.085-0.597-0.085-1.28-0.171-1.963c-0.41-3.396,1.277-6.701,4.267-8.363
			c0.085,0,0.085,0,0.171-0.171c0.764-0.179,1.507-0.436,2.219-0.768c0.196-0.068,0.395-0.125,0.597-0.171h0.171
			c4.041-0.477,7.846,2,9.045,5.888v0.085c1.963-0.683,3.925-1.365,5.888-2.133c5.461-1.963,10.837-3.925,16.128-5.973
			c-0.085-0.939-0.085-1.792-0.171-2.816c-0.451-4.26,2.352-8.185,6.527-9.142s8.408,1.356,9.857,5.387
			c0.293-0.125,0.578-0.267,0.853-0.427c7.339-3.072,14.336-6.315,20.992-9.557c-0.085-1.109-0.085-2.304-0.171-3.499
			c-0.465-4.099,2.087-7.939,6.046-9.097s8.179,0.7,9.996,4.404c1.707-1.024,3.328-1.963,4.949-2.901
			c0.341-0.171,0.683-0.427,1.024-0.597c5.474-3.305,10.772-6.894,15.872-10.752c-0.256-1.707-0.341-3.413-0.683-5.291
			c-0.369-2.241,0.171-4.537,1.501-6.379c1.329-1.842,3.338-3.078,5.582-3.434c1.605-0.185,3.231,0.081,4.693,0.768
			c1.963-0.512,3.925-1.109,5.803-1.536c0.683-0.768,1.28-1.536,1.963-2.304c0.597-0.597,1.109-1.195,1.621-1.792
			c0.597-0.768,1.28-1.451,1.877-2.133c1.109-1.28,2.304-2.56,3.413-3.755c1.109-1.195,2.133-2.475,3.157-3.584
			c0.512-0.512,0.853-0.939,1.28-1.365l2.987-3.243c0.683-0.683,1.195-1.28,1.792-1.792c6.587-7.161,13.658-13.861,21.163-20.053
			c1.109-0.939,2.133-1.707,3.072-2.389c0.178-0.17,0.379-0.314,0.597-0.427c23.672,13.581,49.652,22.665,76.629,26.795
			c5.069,0.613,10.169,0.926,15.275,0.939c5.12,0,9.984-0.171,14.336-0.597c0.512,0,0.939-0.085,1.451-0.085
			c8.419-0.605,16.762-2.005,24.917-4.181c3.443-0.977,7.124,0.365,9.131,3.328c0.951,1.448,1.483,3.132,1.536,4.864
			c0.085,4.011,0.256,7.936,0.427,11.776c0.171,3.84,0.427,7.595,0.683,11.349c2.444,0.318,4.627,1.69,5.973,3.755
			c1.203,1.923,1.592,4.245,1.079,6.455c-0.512,2.21-1.883,4.124-3.81,5.321c-0.085,0-0.768,0.427-1.877,1.024
			c0.597,5.632,1.195,11.179,1.877,16.469c1.536,11.264,3.157,21.845,4.779,31.573c2.475,14.592,4.864,27.648,6.4,39.083v0.171
			c0.427,2.901,0.768,5.717,1.024,8.363C477.861,305.514,475.008,319.51,468.333,331.792z"/>
		<path style="fill:#1566C0;" d="M501.101,283.067v0.171c-14.933,40.107-69.803,40.619-91.904,40.107l-0.597-0.171H84.333
			c-55.04,0-73.899-18.603-76.459-21.504c0.836-7.922,3.915-15.441,8.875-21.675c5.956-7.55,14.283-12.872,23.637-15.104
			c4.864-1.109,10.155-2.389,15.787-3.84c3.328-0.768,6.827-1.621,10.411-2.56c0.427-0.085,0.853-0.256,1.28-0.341
			c3.072-0.768,6.144-1.536,9.387-2.389c2.56-0.768,5.205-1.451,7.936-2.219c0.578-0.102,1.149-0.244,1.707-0.427
			c8.619-2.304,17.664-4.864,26.88-7.595c4.864-1.451,9.728-2.901,14.677-4.437c1.792-0.597,3.584-1.109,5.376-1.707
			c2.987-0.939,5.973-1.877,8.96-2.901c5.461-1.707,10.837-3.584,16.299-5.547l5.888-2.048c5.461-1.963,10.837-3.925,16.128-5.973
			c5.547-2.133,10.923-4.352,16.213-6.571c0.293-0.125,0.578-0.267,0.853-0.427c12.62-5.2,24.929-11.126,36.864-17.749
			c1.707-1.024,3.328-1.963,4.949-2.901c0.341-0.171,0.683-0.427,1.024-0.597c5.474-3.305,10.772-6.894,15.872-10.752
			c5.562-4.061,10.656-8.726,15.189-13.909c0.597-0.683,1.109-1.365,1.707-1.963c0.683-0.768,1.28-1.536,1.963-2.304
			c0.597-0.597,1.109-1.195,1.621-1.792c0.597-0.768,1.28-1.451,1.877-2.133c1.109-1.28,2.304-2.56,3.413-3.755
			c1.109-1.195,2.133-2.475,3.157-3.584c0.512-0.512,0.853-0.939,1.28-1.365l2.987-3.243c0.683-0.683,1.195-1.28,1.792-1.792
			c6.587-7.161,13.658-13.861,21.163-20.053c1.109-0.939,2.133-1.707,3.072-2.389c0.491-0.425,1.004-0.823,1.536-1.195
			c1.659-1.224,3.398-2.336,5.205-3.328c0.351-0.232,0.722-0.432,1.109-0.597c0.839-0.488,1.725-0.888,2.645-1.195l0.085-0.085
			h0.085c0.171-0.085,0.427-0.171,0.597-0.256c3.413-1.109,4.437-0.085,4.437-0.085c26.494,16.835,56.137,28.1,87.125,33.109
			c5.069,0.613,10.169,0.926,15.275,0.939c5.717,0,11.008-0.256,15.787-0.683c8.419-0.605,16.762-2.005,24.917-4.181
			c2.544-0.657,5.248-0.106,7.331,1.495c2.083,1.6,3.314,4.071,3.335,6.697c0.085,4.011,0.256,7.936,0.427,11.776
			c0.171,3.84,0.427,7.595,0.683,11.349c0.341,5.717,0.853,11.179,1.365,16.555c0.597,5.632,1.195,11.179,1.877,16.469
			c1.451,11.264,3.157,21.76,4.779,31.573C497.176,258.576,499.565,271.632,501.101,283.067z"/>
		<path style="fill:#2296F3;" d="M466.627,283.067v0.171c-11.861,31.915-48.981,38.741-74.837,39.936
			c-6.656,0.341-12.544,0.256-17.067,0.171l-0.597-0.171H49.859c-13.688,0.181-27.351-1.251-40.704-4.267
			c-1.1-4.061-1.645-8.252-1.621-12.459c-0.017-1.6,0.097-3.198,0.341-4.779c0.836-7.922,3.915-15.441,8.875-21.675
			c5.956-7.55,14.283-12.872,23.637-15.104c4.864-1.109,10.155-2.389,15.787-3.84c3.328-0.768,6.827-1.707,10.411-2.56
			c0.427-0.085,0.853-0.256,1.28-0.341c3.072-0.768,6.144-1.536,9.387-2.389c2.56-0.768,5.205-1.451,7.936-2.219
			c0.578-0.102,1.149-0.244,1.707-0.427c8.619-2.389,17.664-4.864,26.88-7.595c4.864-1.451,9.728-2.901,14.677-4.437
			c1.792-0.597,3.584-1.109,5.376-1.707c2.987-0.939,5.973-1.877,8.96-2.901c-0.085-0.597-0.085-1.28-0.171-1.963
			c-0.552-4.662,2.765-8.894,7.424-9.472c4.041-0.477,7.846,2,9.045,5.888l5.888-2.048c5.461-1.963,10.837-3.925,16.128-5.973
			c-0.085-0.939-0.085-1.792-0.171-2.816c-0.451-4.26,2.352-8.185,6.527-9.142s8.408,1.356,9.857,5.387
			c0.293-0.125,0.578-0.267,0.853-0.427c7.339-3.072,14.336-6.315,20.992-9.557c-0.085-1.109-0.085-2.304-0.171-3.499
			c-0.465-4.099,2.087-7.939,6.046-9.097s8.179,0.7,9.996,4.404c1.707-1.024,3.328-1.963,4.949-2.901
			c0.341-0.171,0.683-0.427,1.024-0.597c5.474-3.305,10.772-6.894,15.872-10.752c-0.256-1.707-0.341-3.413-0.683-5.291
			c-0.369-2.241,0.171-4.537,1.501-6.379c1.329-1.842,3.338-3.078,5.582-3.434c1.605-0.185,3.231,0.081,4.693,0.768
			c1.963-0.512,3.925-1.109,5.803-1.536c0.683-0.768,1.28-1.536,1.963-2.304c0.597-0.597,1.109-1.195,1.621-1.792
			c0.597-0.768,1.28-1.451,1.877-2.133c1.109-1.28,2.304-2.56,3.413-3.755c1.109-1.195,2.133-2.475,3.157-3.584
			c0.512-0.512,0.853-0.939,1.28-1.365l2.987-3.243c0.683-0.683,1.195-1.28,1.792-1.792c6.587-7.161,13.658-13.861,21.163-20.053
			c26.603,14.852,56.269,23.379,86.699,24.917c6.412,0.024,12.821-0.289,19.2-0.939c7.26-0.744,14.45-2.056,21.504-3.925
			c3.776-1.073,7.783,0.68,9.557,4.181c0.675,1.233,1.055,2.606,1.109,4.011C452.376,211.045,462.445,252.517,466.627,283.067z"/>
	</g>
	<g>
		<path d="M506.172,255.429c-7.033-36.251-10.795-73.061-11.238-109.986c0.007-2.951-1.51-5.696-4.013-7.259
			c-2.503-1.563-5.635-1.722-8.284-0.421c-15.128,5.749-31.267,8.362-47.437,7.68c-46.447,0-94.14-30.353-97.502-32.538
			c-2.066-1.446-4.567-2.137-7.083-1.954c-4.412,0.171-17.826,0.691-64,54.511c-1.688,1.931-3.474,3.773-5.35,5.521
			c-1.012,0.618-1.884,1.441-2.56,2.415c-10.016,8.358-20.942,15.561-32.572,21.47c-1.138,0.321-2.192,0.886-3.089,1.655
			c-10.556,5.453-22.187,10.658-34.338,15.599c-1.011,0.203-1.975,0.594-2.842,1.152c-11.238,4.497-22.912,8.764-34.654,12.8
			c-0.068,0-0.128,0-0.196,0c-1.187,0.157-2.327,0.564-3.345,1.195c-41.31,13.807-82.816,24.371-108.262,30.345
			c-20.991,4.931-36.588,22.569-38.912,44.006c-0.046,0.311-0.074,0.624-0.085,0.939C0.256,304.171,0,305.776,0,307.405
			c0.073,29.638,21.866,54.74,51.2,58.974v17.613c0,9.426,7.641,17.067,17.067,17.067h25.6c9.426,0,17.067-7.641,17.067-17.067
			v-17.015H128v17.015c0,9.426,7.641,17.067,17.067,17.067h25.6c9.426,0,17.067-7.641,17.067-17.067v-17.015H204.8v17.015
			c0,9.426,7.641,17.067,17.067,17.067h25.6c9.426,0,17.067-7.641,17.067-17.067v-17.015h102.4v17.015
			c0,9.426,7.641,17.067,17.067,17.067h25.6c9.426,0,17.067-7.641,17.067-17.067v-17.067h8.533c2.855-0.029,5.705-0.237,8.533-0.623
			v9.156c0,9.426,7.641,17.067,17.067,17.067h25.6c9.426,0,17.067-7.641,17.067-17.067v-40.405
			c6.761-13.379,9.586-28.402,8.149-43.324C510.566,281.003,508.536,269.15,506.172,255.429z M43.341,274.202
			c28.075-6.605,64.546-16.043,100.855-27.844c0.122,5.067-0.694,10.112-2.406,14.882c-1.227,2.829-0.833,6.1,1.032,8.557
			c1.865,2.456,4.91,3.715,7.965,3.293c3.055-0.422,5.644-2.46,6.773-5.33c3.175-8.654,4.387-17.905,3.55-27.085
			c7.091-2.466,14.131-5.009,21.043-7.68c-0.166,3.796-0.938,7.541-2.287,11.093c-1.288,2.831-0.933,6.139,0.926,8.633
			c1.859,2.494,4.928,3.778,8.009,3.353s5.687-2.494,6.8-5.398c2.958-7.829,4.215-16.198,3.686-24.55
			c7.228-3.021,14.234-6.135,20.949-9.387c-0.225,3.512-0.999,6.968-2.295,10.24c-1.841,4.336,0.18,9.343,4.514,11.187
			c1.051,0.452,2.184,0.684,3.328,0.683c3.425,0.002,6.52-2.044,7.859-5.197c3.109-8.155,4.362-16.9,3.669-25.6
			c7.291-3.969,14.356-8.339,21.163-13.09c0.142,5.108-0.677,10.197-2.415,15.002c-0.872,2.089-0.877,4.438-0.016,6.532
			c0.861,2.093,2.518,3.759,4.607,4.63c1.035,0.462,2.152,0.712,3.285,0.734c3.447,0.004,6.558-2.067,7.885-5.248
			c3.484-9.611,4.654-19.907,3.413-30.054c58.982-15.616,75.093-3.012,90.581,9.276c11.837,11.191,27.495,17.447,43.785,17.493
			c4.713,0,8.533-3.821,8.533-8.533s-3.821-8.533-8.533-8.533c-12.461-0.034-24.402-4.994-33.22-13.798
			c-16.213-12.851-34.295-27.187-87.347-16.691c26.325-29.329,37.751-35.951,41.225-37.393c10.59,6.647,57.173,34.133,104.96,34.133
			c14.434,0.185,28.829-1.536,42.812-5.12c0.205,8.849,0.674,17.28,1.271,25.438c-9.145,4.341-18.801,7.509-28.74,9.429
			c-4.276,0.89-7.19,4.866-6.751,9.212c0.439,4.346,4.089,7.659,8.457,7.675c0.591,0,1.18-0.063,1.758-0.188
			c9.197-1.864,18.197-4.593,26.88-8.149c2.313,21.692,5.581,40.764,8.465,57.506c1.536,8.96,2.901,17.067,3.959,24.474
			c-9.489,22.75-36.89,33.843-81.92,33.05c-0.594-0.13-1.201-0.196-1.809-0.196H85.333c-41.728,0-60.698-11.025-67.234-16.111
			c2.915-12.549,12.7-22.356,25.242-25.301V274.202z M486.4,332.698v42.761h-25.6v-13.781c1.101-0.478,2.313-1.015,3.61-1.63
			c2.821-1.26,4.741-3.946,5.019-7.023c0.278-3.077-1.129-6.064-3.678-7.809c-2.549-1.745-5.843-1.976-8.611-0.604
			c-4.156,1.954-7.407,3.14-7.373,3.14c-4.727,1.409-9.634,2.119-14.566,2.108h-17.067c-4.713,0-8.533,3.82-8.533,8.533v25.6H384
			v-17.015c4.713,0,8.533-3.82,8.533-8.533s-3.82-8.533-8.533-8.533h-8.286c-0.094,0-0.171-0.051-0.265-0.051
			s-0.171,0.051-0.265,0.051H256c-4.713,0-8.533,3.82-8.533,8.533v25.549h-25.6v-17.067c4.713,0,8.533-3.82,8.533-8.533
			s-3.821-8.533-8.533-8.533h-8.533c-0.094,0-0.171,0.051-0.265,0.051H179.2c-4.713,0-8.533,3.82-8.533,8.533v25.549h-25.6v-17.067
			c4.713,0,8.533-3.82,8.533-8.533s-3.821-8.533-8.533-8.533h-8.533c-0.094,0-0.171,0.051-0.265,0.051H102.4
			c-4.713,0-8.533,3.82-8.533,8.533v25.549h-25.6v-17.067c4.713,0,8.533-3.82,8.533-8.533s-3.82-8.533-8.533-8.533h-8.533
			c-0.077,0-0.137,0.043-0.205,0.043c-18.481-0.107-34.774-12.147-40.303-29.781c20.783,9.196,43.399,13.502,66.108,12.587h323.191
			c0.487,0.097,0.98,0.151,1.476,0.162c2.091,0.051,4.139,0.077,6.17,0.077c35.422,0,61.244-7.586,77.653-22.263
			c-0.956,5.916-2.882,11.633-5.7,16.922C487.015,329.072,486.41,330.859,486.4,332.698z"/>
		<path d="M452.267,247.459h8.533c4.713,0,8.533-3.821,8.533-8.533c0-4.713-3.82-8.533-8.533-8.533h-8.533
			c-4.713,0-8.533,3.821-8.533,8.533C443.733,243.638,447.554,247.459,452.267,247.459z"/>
		<path d="M452.267,281.592h8.533c4.713,0,8.533-3.821,8.533-8.533s-3.82-8.533-8.533-8.533h-8.533c-4.713,0-8.533,3.82-8.533,8.533
			S447.554,281.592,452.267,281.592z"/>
	</g>
</g>
<g>
</g>
<g>
</g>
<g>
</g>
<g>
</g>
<g>
</g>
<g>
</g>
<g>
</g>
<g>
</g>
<g>
</g>
<g>
</g>
<g>
</g>
<g>
</g>
<g>
</g>
<g>
</g>
<g>
</g>
</svg>
