<?xml version="1.0" encoding="iso-8859-1"?>
<!-- Generator: Adobe Illustrator 21.0.0, SVG Export Plug-In . SVG Version: 6.00 Build 0)  -->
<svg version="1.1" id="Capa_1" xmlns="http://www.w3.org/2000/svg" xmlns:xlink="http://www.w3.org/1999/xlink" x="0px" y="0px"
	 viewBox="0 0 512 512" style="enable-background:new 0 0 512 512;" xml:space="preserve">
<g transform="translate(-1)">
	<g transform="translate(2 1)">
		<g>
			<path style="fill:#FDD834;" d="M365.954,49.944l-110.933,8.789l-119.467-4.352c30.652-15.855,73.856-40.32,83.413-45.756
				c1.274-0.725,2.716-1.102,4.181-1.092h63.744c1.478,0.001,2.931,0.386,4.215,1.118c4.651,2.645,17.067,9.702,32.179,18.082
				C336.685,34.157,352.044,42.605,365.954,49.944z"/>
			<path style="fill:#FDD834;" d="M468.354,246.467c0,0-25.6,34.133-59.733,34.133l-42.667-42.667V49.944
				c6.059,3.243,11.861,6.229,17.067,8.789c15.564,6.488,27.549,19.407,32.853,35.413c2.56,8.96,5.035,17.92,8.107,26.709
				L468.354,246.467z"/>
		</g>
		<path style="fill:#FFEB3A;" d="M398.38,120.856c-3.072-8.789-5.547-17.749-8.107-26.709c-4.065-12.832-12.726-23.711-24.32-30.549
			V49.944l-17.067-8.277H161.154l-25.6,12.715c-2.987,1.536-5.803,2.987-8.533,4.352c-15.564,6.488-27.549,19.407-32.853,35.413
			c-2.56,8.96-5.035,17.92-8.107,26.709L41.687,246.467c0,0,25.6,34.133,59.733,34.133l41.472-41.472
			c4.83,22.098,8.081,44.512,9.728,67.072c0,25.6-25.6,102.4-25.6,162.133c0,0,7.083,28.331,98.475,33.365
			c1.28,0.085,2.56,0.171,3.925,0.171c3.925,0.256,8.107,0.341,12.373,0.427c0.283,0.043,0.571,0.043,0.853,0
			c4.011,0.171,8.107,0.171,12.373,0.171c9.131,0,17.664-0.171,25.6-0.597c1.365,0,2.645-0.085,3.925-0.171
			c91.392-5.035,98.475-33.365,98.475-33.365c0-59.733-25.6-136.533-25.6-162.133c1.647-22.56,4.898-44.974,9.728-67.072
			l37.205,37.205c15.025-6.707,28.201-16.955,38.4-29.867L398.38,120.856z"/>
		<g>
			<polygon style="fill:#2296F3;" points="229.421,306.2 229.421,502.467 225.495,501.699 186.754,493.933 186.754,289.133 
				178.221,75.8 178.221,41.667 220.887,41.667 220.887,75.8 			"/>
			<polygon style="fill:#2296F3;" points="323.287,41.667 323.287,493.933 284.546,501.699 280.621,502.467 280.621,41.667 			"/>
		</g>
		<g>
			<path style="fill:#F5F5F5;" d="M176.514,117.093l25.6-5.12c2.512-0.513,5.122,0.131,7.108,1.754
				c1.985,1.623,3.135,4.053,3.132,6.617v126.123c0,4.713-3.821,8.533-8.533,8.533h-17.067c-4.713,0-8.533-3.821-8.533-8.533v-102.4
				h-8.533v-18.603C169.682,121.405,172.537,117.905,176.514,117.093z"/>
			<path style="fill:#F5F5F5;" d="M289.154,109.933h21.777c2.431,0,4.747,1.037,6.366,2.85l12.356,13.833
				c1.396,1.564,2.168,3.587,2.167,5.683v100.335c0,2.096-0.771,4.119-2.167,5.683l-12.339,13.833
				c-1.619,1.813-3.935,2.85-6.366,2.85h-43.52c-2.431,0-4.747-1.037-6.366-2.85l-12.356-13.833
				c-1.415-1.556-2.205-3.58-2.219-5.683V132.299c0-2.096,0.771-4.119,2.167-5.683l12.339-13.833
				c1.623-1.818,3.946-2.855,6.383-2.85H289.154z"/>
		</g>
	</g>
	<g>
		<path d="M434.053,118.972c-2.628-7.45-4.864-15.317-7.031-22.921l-0.93-3.268c-6.02-18.271-19.585-33.085-37.257-40.687
			c-33.527-16.759-92.851-50.637-93.414-50.97c-1.298-0.746-2.77-1.134-4.267-1.126h-68.267c-1.497-0.008-2.969,0.381-4.267,1.126
			c-0.597,0.333-59.921,34.21-93.449,50.97c-17.675,7.602-31.241,22.42-37.257,40.695l-0.93,3.26
			c-2.167,7.603-4.403,15.471-7.031,22.921L35.58,244.625c-0.933,2.701-0.453,5.689,1.28,7.962
			c1.152,1.536,28.595,37.547,66.56,37.547c2.263,0,4.433-0.9,6.033-2.5l30.037-30.037c3.371,16.358,5.576,32.934,6.596,49.604
			c-1.609,16.322-4.502,32.491-8.653,48.358c-7.561,34.193-16.947,76.74-16.947,113.775c0,0.699,0.086,1.396,0.256,2.074
			c1.545,6.187,13.833,34.884,107.247,39.851c1.08,0.483,2.248,0.735,3.43,0.742c0.801-0.042,1.591-0.201,2.347-0.469
			c7.287,0.299,14.993,0.469,23.253,0.469c8.26,0,15.966-0.171,23.253-0.469c0.755,0.269,1.546,0.427,2.347,0.469
			c1.177-0.009,2.339-0.262,3.413-0.742c93.414-4.966,105.702-33.664,107.247-39.851c0.176-0.677,0.267-1.374,0.273-2.074
			c0-37.035-9.387-79.582-16.947-113.775c-4.151-15.867-7.044-32.037-8.653-48.358c1.021-16.67,3.225-33.247,6.596-49.604
			l30.037,30.037c1.6,1.6,3.77,2.5,6.033,2.5c37.965,0,65.408-36.011,66.56-37.547c1.712-2.283,2.17-5.271,1.22-7.962
			L434.053,118.972z M225.148,17.067h63.744c4.207,2.389,14.78,8.388,27.861,15.676v1.391H194.787
			C209.021,26.215,220.677,19.627,225.148,17.067z M414.034,272.93l-6.639-6.639c9.405-6.304,18.222-13.444,26.342-21.333
			c3.334-3.332,3.336-8.736,0.004-12.07c-3.332-3.334-8.736-3.336-12.07-0.004c-8.128,7.913-17.05,14.967-26.624,21.052
			l-16.614-16.614c3.413-17.067,6.332-30.362,6.4-30.72c0.926-4.559-1.969-9.02-6.51-10.029c-4.541-1.01-9.054,1.804-10.147,6.326
			c-0.725,3.226-17.289,78.071-17.289,104.303c1.508,17.58,4.537,34.997,9.054,52.053c9.062,35.531,14.604,71.867,16.546,108.484
			c-1.476,2.372-10.061,13.09-42.667,20.343V290.133c0-4.713-3.82-8.533-8.533-8.533s-8.533,3.821-8.533,8.533v201.079
			c-7.552,1.092-16.077,1.988-25.6,2.628V307.2c0-4.713-3.82-8.533-8.533-8.533s-8.533,3.82-8.533,8.533v187.477
			c-5.41,0.162-11.093,0.256-17.067,0.256c-5.973,0-11.657-0.094-17.067-0.256V307.2c0-4.713-3.821-8.533-8.533-8.533
			s-8.533,3.82-8.533,8.533v186.658c-9.54-0.64-18.039-1.536-25.6-2.62V290.133c0-4.713-3.821-8.533-8.533-8.533
			c-4.713,0-8.533,3.821-8.533,8.533v197.973c-32.862-7.279-41.216-18.082-42.667-20.412c1.943-36.603,7.485-72.925,16.546-108.442
			c4.517-17.057,7.546-34.473,9.054-52.053c0-26.231-16.563-101.077-17.271-104.252c-0.615-3.024-2.814-5.481-5.752-6.425
			c-2.938-0.944-6.157-0.228-8.418,1.872c-2.261,2.1-3.212,5.257-2.488,8.257c0.068,0.316,3.004,13.594,6.4,30.72l-16.614,16.614
			c-9.574-6.085-18.496-13.139-26.624-21.052c-3.334-3.332-8.738-3.33-12.07,0.004c-3.332,3.334-3.33,8.738,0.004,12.07
			c8.121,7.89,16.937,15.03,26.342,21.333l-6.639,6.639c-21.888-1.707-39.936-19.627-46.677-27.204l42.735-121.122
			c2.807-7.953,5.12-16.077,7.347-23.893l0.922-3.243c4.21-12.223,13.076-22.288,24.67-28.006v24.354
			c0,4.713,3.821,8.533,8.533,8.533s8.533-3.821,8.533-8.533v-33.28c5.632-2.944,11.58-6.118,17.604-9.387h7.996v25.6
			c0,4.713,3.821,8.533,8.533,8.533s8.533-3.821,8.533-8.533V51.2h25.6v25.6c0,4.713,3.821,8.533,8.533,8.533
			c4.713,0,8.533-3.821,8.533-8.533V51.2h42.667v25.6c0,4.713,3.82,8.533,8.533,8.533s8.533-3.821,8.533-8.533V51.2h25.6v25.6
			c0,4.713,3.82,8.533,8.533,8.533s8.533-3.821,8.533-8.533V51.2h16.529l9.071,4.864v37.803c0,4.713,3.821,8.533,8.533,8.533
			c4.713,0,8.533-3.821,8.533-8.533V64.981l4.719,2.389c13.359,5.501,23.727,16.455,28.484,30.097l0.93,3.226
			c2.227,7.859,4.54,15.983,7.347,23.936l42.726,121.131C453.953,253.338,435.905,271.207,414.034,272.93z"/>
		<path d="M212.647,102.571l-42.667,8.533c-3.974,0.811-6.827,4.307-6.827,8.363v25.6c0,4.713,3.821,8.533,8.533,8.533V256
			c0,4.713,3.821,8.533,8.533,8.533h34.133c4.713,0,8.533-3.821,8.533-8.533V110.933c0.001-2.563-1.151-4.99-3.136-6.611
			C217.767,102.701,215.158,102.058,212.647,102.571z M205.821,247.467h-17.067v-102.4c0-4.713-3.82-8.533-8.533-8.533v-10.069
			l25.6-5.12V247.467z"/>
		<path d="M323.12,105.25c-1.619-1.813-3.935-2.85-6.366-2.85h-51.2c-2.431,0-4.747,1.037-6.366,2.85l-17.067,19.115
			c-1.396,1.564-2.168,3.587-2.167,5.683v106.837c0,2.096,0.771,4.119,2.167,5.683l17.067,19.115c1.619,1.813,3.935,2.85,6.366,2.85
			h51.2c2.431,0,4.747-1.037,6.366-2.85l17.067-19.115c1.396-1.564,2.168-3.587,2.167-5.683V130.048
			c0-2.096-0.771-4.119-2.167-5.683L323.12,105.25z M325.287,233.626l-12.356,13.841h-43.52l-12.39-13.841V133.308l12.356-13.841
			h43.52l12.39,13.841V233.626z"/>
		<path d="M291.154,145.067c-4.713,0-8.533,3.821-8.533,8.533v59.733c0,4.713,3.82,8.533,8.533,8.533s8.533-3.82,8.533-8.533V153.6
			C299.687,148.887,295.867,145.067,291.154,145.067z"/>
	</g>
</g>
<g>
</g>
<g>
</g>
<g>
</g>
<g>
</g>
<g>
</g>
<g>
</g>
<g>
</g>
<g>
</g>
<g>
</g>
<g>
</g>
<g>
</g>
<g>
</g>
<g>
</g>
<g>
</g>
<g>
</g>
</svg>
