<svg version="1.1" id="Layer_1" xmlns="http://www.w3.org/2000/svg" xmlns:xlink="http://www.w3.org/1999/xlink" x="0px" y="0px"
     viewBox="0 0 114.6 28.4" style="enable-background:new 0 0 114.6 28.4;" xml:space="preserve">
<style type="text/css">
	.st0{fill:#B2B2BB;}
</style>
    <g>
	<g>
		<path class="st0" d="M10.4,15H6.5l2.1-6.8L10.4,15L10.4,15z M4.5,22.5l1.3-4.5h5.3l1.2,4.5h4.9l-4.8-17c-0.3-1-0.9-1.5-1.9-1.5
			H3.5v1.6h0.6c0.7,0,1.1,0.3,1.1,0.8c0,0.4-0.1,0.7-0.4,1.5L0,22.5H4.5L4.5,22.5z"/>
        <path class="st0" d="M22.9,22.5V5.5c0-0.9-0.5-1.4-1.4-1.4h-4.3v1.6h0.3c0.7,0,1,0.3,1,1v15.9L22.9,22.5L22.9,22.5z"/>
        <path class="st0" d="M30.3,22.5V5.5c0-0.9-0.5-1.4-1.4-1.4h-4.3v1.6h0.3c0.7,0,1,0.3,1,1v15.9L30.3,22.5L30.3,22.5z"/>
        <path class="st0" d="M37.9,5.7c0-1.2-0.9-2-2.5-2c-1.6,0-2.5,0.8-2.5,2s0.9,2,2.5,2C36.9,7.7,37.9,7,37.9,5.7 M37.8,22.5V10.1
			c0-0.9-0.5-1.4-1.4-1.4h-4.2v1.6h0.3c0.7,0,1,0.3,1,1.1v11.2H37.8L37.8,22.5z"/>
        <path class="st0" d="M47.3,15.9v2.7c-0.7,0.8-1.6,1.2-2.3,1.2c-0.8,0-1.1-0.4-1.1-1.4c0-1,0.2-1.5,1-1.8
			C45.5,16.3,46.2,16.1,47.3,15.9 M41.5,12.6c1.4-0.7,3-1.1,4.3-1.1c1.2,0,1.6,0.4,1.6,1.6v0.3c-1.8,0.3-2.3,0.4-3.3,0.6
			c-0.6,0.2-1.1,0.3-1.6,0.5c-1.7,0.7-2.6,2-2.6,4.1c0,2.6,1.1,3.9,3.5,3.9c0.9,0,1.6-0.2,2.3-0.5c0.6-0.3,1-0.5,1.9-1.2v0.2
			c0,0.9,0.5,1.3,1.3,1.3h4V21h-0.2c-0.8,0-1-0.3-1-1.2v-6.6c0-3.5-1.2-4.7-4.7-4.7c-1.1,0-2.2,0.2-3.3,0.4c-1.1,0.3-1.6,0.5-3,1.1
			L41.5,12.6L41.5,12.6z"/>
        <path class="st0" d="M59.1,22.5v-9.4c0.7-0.8,1.5-1.2,2.3-1.2c0.9,0,1.1,0.4,1.1,1.7v8.8h4.3v-9.4c0-2.2-0.2-2.9-0.9-3.6
			c-0.6-0.6-1.5-1-2.6-1c-1.7,0-2.9,0.5-4.5,2V10c0-0.9-0.5-1.3-1.3-1.3h-4.1v1.6h0.3c0.7,0,1,0.3,1,1.1v11.2H59.1L59.1,22.5z"/>
        <path class="st0" d="M79.7,19.6h-6.1l5.8-8.1V8.6h-9c-1,0-1.5,0.5-1.5,1.5v2.5h1.6v-0.3c0-0.6,0.3-0.9,1-0.9h3.1l-5.8,8.2v2.8
			h10.9V19.6L79.7,19.6z"/>
        <path class="st0" d="M102.4,22.2V6.5c0-1.2-0.5-1.7-1.7-1.7h-3.7v1.7h0.2c0.8,0,1,0.2,1,1.2v14.4L102.4,22.2L102.4,22.2z
			 M104.2,22.2h4.1V10c0-1.2-0.5-1.7-1.7-1.7h-2.4V22.2L104.2,22.2z M96.5,22.2V8.3h-2.4c-1.2,0-1.7,0.5-1.7,1.7v12.2H96.5
			L96.5,22.2z M112.1,14.2c0,6.9-5,11.9-11.8,11.9c-6.8,0-11.8-5-11.8-11.9c0-6.9,5-11.9,11.8-11.9C107.2,2.3,112.1,7.3,112.1,14.2
			 M114.6,14.2c0-8.1-6.1-14.2-14.2-14.2c-8.1,0-14.2,6.1-14.2,14.2c0,8.1,6.1,14.2,14.2,14.2C108.5,28.4,114.6,22.3,114.6,14.2"/>
	</g>
</g>
</svg>